Produkcja: USA, Wielka Brytania
Gatunek: Familijny, Fantasy, Przygodowy
Data premiery: 2009-07-24 (Polska), 2009-07-06 (Świat)
Reżyseria: David Yates
Scenariusz: Steve Kloves
Zdjęcia: Bruno Delbonnel
Muzyka: John Williams
Czas trwania: 153 min.

Filmweb: 7,96/10 (1,486 głosów) 
http://www.filmweb.pl/f142402/Harry+Potter+i+Ksi%C4%85%C5%BC%C4%99+P%C3%B3%C5%82krwi,2009

Za sprawą odrodzenia Lorda Voldemorta, świat magii staje się coraz mroczniejszy. Harry Potter jak co roku rozpoczyna naukę czarów w Hogwarcie. Przez przypadek w jego ręce wpada stary podręcznik do eliksirów, niegdyś należący do Księcia Półkrwi. Oprócz tego młody czarodziej ma do rozwiązania tajemniczą zagadkę horkruksów i podejrzanego zachowania Malfoya. Wraz z dyrektorem szkoły wybiera się w podróże do myślodsiewni, które mają na celu przybliżenie dzieciństwa Toma Riddle'a oraz ukazanie życia jego matki.

Obsada:

Daniel Radcliffe ... Harry Potter
Emma Watson ... Hermione Granger
Rupert Grint ... Ron Weasley
Tom Felton ... Draco Malfoy
Christian Coulson ... Tom Marvolo Riddle
Helena Bonham Carter ... Bellatrix Lestrange
Alan Rickman ... Severus Snape
Jessie Cave ... Lavender Brown

Info
Format : AVI
Format/Info : Audio Video Interleave
File size : 901 MiB
Duration : 2h 27mn
Overall bit rate : 856 Kbps

Video #0

Codec ID : XVID
Codec ID/Hint : XviD
Duration : 2h 27mn
Bit rate : 718 Kbps
Width : 640 pixels
Height : 272 pixels
Display aspect ratio : 2.35:1
Frame rate : 25.000 fps
Resolution : 24 bits
Colorimetry : 4:2:0
Scan type : Progressive
Bits/(Pixel*Frame) : 0.165
Stream size : 756 MiB (84%)
Writing library : XviD 1.2.1 (UTC 2008-12-04)
Audio #1
ID : 1

Bit rate : 128 Kbps
Channel(s) : 2 channels
Sampling rate : 48.0 KHz
Resolution : 16 bits
Stream size : 135 MiB (15%)
Alignment : Aligned on interleaves
Interleave, duration : 40 ms (1.00 video frame)
Interleave, preload duration : 504 ms
Writing library : LAME3.98r
Encoding settings : -m j -V 4 -q 2 -lowpass 17 -b 128